<?xml version="1.0" encoding="utf-8"?>
<!-- Generator: Adobe Illustrator 19.0.0, SVG Export Plug-In . SVG Version: 6.00 Build 0)  -->
<svg version="1.1" id="Layer_1" xmlns="http://www.w3.org/2000/svg" xmlns:xlink="http://www.w3.org/1999/xlink" x="0px" y="0px"
	 viewBox="0 0 338.3 721.5" style="enable-background:new 0 0 338.3 721.5;" xml:space="preserve">
<style type="text/css">
	.st0{fill:#0C0C0C;}
	.st1{fill:#5D5D5D;}
	.st2{fill:#3B3B3B;}
	.st3{fill:#373737;}
	.st4{fill:#181818;}
	.st5{fill:#1B1B1B;}
	.st6{fill:#4B4B4B;}
	.st7{fill:#202020;}
	.st8{fill:#292929;}
	.st9{fill:#191919;}
	.st10{fill:#575757;}
	.st11{fill:#4C4C4C;}
	.st12{fill:#2D2D2D;}
	.st13{fill:#252525;}
	.st14{fill:#343434;}
	.st15{fill:#010101;}
	.st16{fill:#020202;}
	.st17{fill:#353535;}
	.st18{fill:#404040;}
	.st19{fill:#B5B5B5;}
	.st20{fill:#8A8A8A;}
	.st21{fill:#A6A6A6;}
	.st22{fill:#6C6C6C;}
	.st23{fill:#5C5C5C;}
	.st24{fill:#141414;}
	.st25{fill:#171717;}
	.st26{fill:#AFAFAF;}
	.st27{fill:#383838;}
	.st28{fill:#818181;}
	.st29{fill:#090909;}
	.st30{fill:#0B0B0B;}
	.st31{fill:#0E0E0E;}
	.st32{fill:#6F6F6F;}
</style>
<g id="XMLID_1_">
	<path id="XMLID_206_" class="st0" d="M335.7,299.7c0,55.1,0.1,110.1,0.1,165.2c0,70.5,0,140.9-0.2,211.4c0,12.7-2.2,24.9-12.8,33.8
		c-1.4,1.1-2.9,2.1-4.4,3.1c-1.4-0.3-2.4,0.7-3.7,0.8c-11.9-1-11.1-2.4-5.7-11.2c0.7-1.2,1.1-2.7,1.7-4c1.5-3.4,1.5-6.3-2.4-8.1
		c-0.8-0.4-1.3-1.3-1.4-2.2c5.3,0,8.1-1.2,11-4.6c3.3,1,3.2,1,2.6,5.2c-0.6,4.3-2.7,8.7-1.4,13.2c2.2-0.4,3-2.4,4.2-3.8
		c1.1-1.8,3.3-3,3.4-5.5c0.8-2,1.7-4,2-6.2c2.1-8.3,2.5-16.6,0.6-25c0.5-3.8,0.5-7.6,0.5-11.4c0-196.7,0-393.4,0-590.1
		c0-2.5,0-5.1-0.2-7.6c-0.2-7.4,0.1-9.9-0.2-14.8c-0.4-2.9-1.2-5.8-2-8.6c-0.4-2.2-1.8-3.9-3-5.7c-0.6-1.2-1.3-2.3-2.2-3.4
		c-0.9-1.3-2.1-2.3-3.3-3.3c-1-1.7-2.8-2.3-4.5-2.9c-1.7-1.4-3.5-0.5-5.3-0.1c-5.2-1-10-3.8-15.4-4.1c-28.4-6.2-57.2-2.7-85.9-3.1
		c-37.3-0.6-74.6-0.2-111.8-0.1c-15.1,0-30.3-1.5-45.1,3.4c-2.3,0.6-4.6,1-7,0.9c-8.9-0.7-14.1,3.9-17.4,11.7
		c-2.8,6.5-0.9,10.2,6.1,11.5c2.5,0.4,5.7-0.5,4.4,3.4c-6.2,0-27.9-0.9-29.8,3.2c-7.2-0.1,4-13.3,3.1-10.3c-1.1,2.9-0.6,6.8-4.8,7.8
		c-0.9-0.2-1.4-0.8-1.8-1.6C5.6,19.6,14.8,9,31.1,4.3c5.1-1.4,10.3-1.9,15.5-1.8c4,0.7,7.9-0.1,11.9-0.1
		c76.2,0.1,152.4,0.1,228.6,0.1c6.1-0.3,12.1,0.5,18.1,1.6c12.5,2.5,21.7,9.2,26.5,21.3c2.8,7.7,3.7,15.7,3.7,23.9
		c-0.1,49.6-0.1,99.3,0,148.9c0,2.3-0.3,4.7,0.6,7c1.1,8.5,0.2,17,0.5,25.4c0.6,21.1-1.9,42.2-1.1,63.3
		C335.4,295.8,335,297.8,335.7,299.7z"/>
	<path id="XMLID_205_" class="st1" d="M315.2,712.6c1.2-0.1,2.5-1,3.4,0.6c-3.3,3.3-7.6,4.4-12.1,4.9c-6.7,1-13.5,1.8-20.3,1.7
		c-12.9-0.2-25.8,0.9-38.8,0.6c-49.4,0-98.8,0-148.2,0c-20.5,0-41,0.1-61.5-1.6c-4.5-0.4-8.7-1.8-13.1-2.7c-1.6-1.2-4.3-0.7-5.2-3.2
		c-0.3-2,1.1-2.2,2.6-2.5c17.8,5.5,36.2,5.9,54.5,6c61.9,0.3,123.9,0.3,185.8,0c15.8-0.1,31.6-1.1,47.2-3.3
		C311.4,713,313.1,711.3,315.2,712.6z"/>
	<path id="XMLID_204_" class="st2" d="M330.4,23.6c-5.2-9.8-13.4-15.6-24-18.4c-6-1.8-12.1-2.5-18.3-1.3c-76.9,0-153.7,0-230.6,0
		c-4.3,0-8.7,0-13-0.1c-0.8-1.2-2.8-0.6-3.4-2.2c3.2-2.5,6.8,0.8,10-0.8c1,0.3,1.9,0.8,3,0.8c76.6,0.1,153.2,0.1,229.8,0
		c1-0.1,2-0.5,3-0.8c14.3-0.2,27.9,1.8,38.7,12.7c2.6,2.6,4.4,5.6,5.7,9C331.2,23,330.9,23.4,330.4,23.6z"/>
	<path id="XMLID_203_" class="st3" d="M98.8,719.4c49.7,0,99.4,0,149.2,0c4.9,1,9.9,0.2,14.8,0.5c1.7,0.1,3.6-0.7,5.1,0.7
		c-2.4,1.4-5,0.8-7.4,0.8c-60.7,0-121.4,0-182.1,0c-3.1,0-6.1-0.5-9.2-0.8c5.4-1.6,10.9-0.4,16.4-0.7
		C89.9,719.6,94.4,720.4,98.8,719.4z"/>
	<path id="XMLID_202_" class="st4" d="M21.7,712c-0.7,0.3-1.5,0.6-2.2,0.9c-8.4-5-13.3-12.3-15.2-21.8c-1.6-8-2-16.1-2-24.2
		c0-74.2,0-148.4,0-222.6c0-1.8,0.1-3.6,0.1-5.4c0.8-0.2,1.4,0,1.8,0.6c1.1,2.2,0.7,4.6,0.7,6.9c0,21.3,0,42.6,0,63.8
		c0,5.5,0,11,0,16.5c0,41.2-0.2,82.4,0.1,123.6c0.1,12.1,0.5,24.2,1.9,36.2c1,9.2,5.6,16.2,12.7,21.7
		C20.8,709.2,22.5,709.9,21.7,712z"/>
	<path id="XMLID_201_" class="st5" d="M330.4,23.6c0.3-0.3,0.6-0.7,0.8-1c3.3,6.6,4.5,13.7,4.5,21c0,43.1,0.2,86.1,0.1,129.2
		c-0.1,27.5,3.7,55,2.2,82.5c-0.1,2.4,1.1,5.2-2,6.7c-1.1-1.6-0.6-3.5-0.6-5.3c0-15.4,0-30.7,0-46.1c0-1.8,0.4-3.6-0.5-5.3
		c0-48.8-0.1-97.6,0-146.4C334.9,46.8,334.7,35,330.4,23.6z"/>
	<path id="XMLID_200_" class="st6" d="M3.1,438.7c-0.3,0.1-0.6,0.1-0.8,0.2c-0.1-25.8-0.2-51.7-0.2-77.5c0-17.7,0-35.4,0-53.2
		c0-2.1,0.5-4.4-1.2-6.2c0.3-18.9,0.2-37.8,0.1-56.7c1.1-1.2,1.2-2.6,1.2-4c0-10.3,0-20.6,0-30.9c0-1.5-0.3-2.9-1.1-4.1
		c0.5-0.4,1.1-0.6,1.7-0.6c0.6,0.2,1.1,0.5,1.5,1.1c0.7,1.5,0.5,3.2,0.6,4.8c0,9.5,0,19.1,0,28.6c0,20.7,0,41.4,0,62.2
		c0,1.4,0,2.7,0,4.1c0,6.4,0,12.8,0,19.2c0,1.4,0,2.7,0,4.1c0,24.3,0,48.6,0,72.9c0,3.1,0,6.3,0,9.4c0,7,0,13.9,0,20.9
		C4.8,434.9,5.3,437.2,3.1,438.7z"/>
	<path id="XMLID_199_" class="st4" d="M1.8,206.1l-0.4,0l-0.4,0.1c-1.6-1.4-1-3.4-1-5.1c0-30,0-60.1,0-90.1c0-2.2-1-4.9,2-6.1
		c2.1,1.6,1.7,3.9,1.7,6c0,14.3,0.1,28.5,0,42.8c-1.7,16.3-1.5,32.7-0.2,49C3.6,204.1,3,205.2,1.8,206.1z"/>
	<path id="XMLID_198_" class="st7" d="M31.4,5.1c-4.7,3-10.4,3.8-14.8,7.6C9.2,19.1,5.7,27.3,4.4,36.6c1.9,2.7,1.6,5.8,1.5,8.9
		c-2,15.9-0.5,31.8-1,47.7c-0.1,2.7,0.5,5.4-0.8,8c-0.4,0.6-1,0.8-1.8,0.5c0.2-21.8-1-43.7,0.8-65.5C4.5,20,15.5,6.5,30,3.7
		C31.4,3.2,31.6,4,31.4,5.1z"/>
	<path id="XMLID_197_" class="st8" d="M91.3,0.8c12.5-0.1,24.9-0.3,37.4-0.4c32,0,64,0,96.1,0.1c3,0,6-1.2,9,0.1
		c0.4,0.8,0.2,1.3-0.6,1.7c-47,0.2-94,0.1-141,0C91.2,2.1,90.9,1.6,91.3,0.8z"/>
	<path id="XMLID_196_" class="st9" d="M1,245.3c1.1,1.5,1.2,3.4,1.2,5.2c0,15.5,0,30.9,0,46.4c0,1.8,0.1,3.6-1.2,5.1
		c-1-0.8-0.9-1.9-0.9-3c0-17,0-33.9,0-50.9C0,247.1-0.3,245.9,1,245.3z"/>
	<path id="XMLID_195_" class="st10" d="M2.3,101.8c0.3,0.1,0.6,0.1,0.8,0.2c2.1,1.5,1.7,3.9,1.7,6c0,30.8,0,61.5,0,92.3
		c0,2.1,0.5,4.4-1.8,5.9c-0.4,0-0.8,0-1.2,0c0.1-1.1,0.1-2.2,0.2-3.3c-0.8-16.2-0.7-32.5,0-48.7c0-16.4,0-32.9,0.1-49.3
		C2.1,103.8,2.2,102.8,2.3,101.8z"/>
	<path id="XMLID_194_" class="st11" d="M334.8,205.2c1.4,2.1,1,4.5,1,6.8c0.1,16.6,0.1,33.2,0.1,49.9c0,12.6,0.6,25.2-0.2,37.8
		c-1-2.2-0.8-4.6-0.8-6.9C334.9,263.6,334.9,234.4,334.8,205.2z"/>
	<path id="XMLID_193_" class="st12" d="M98.8,719.4c-6.4,2-12.9,0.6-19.4,1c-3.4,0.2-6.9,0.2-10.3,0.2c-14.3,0-28.7,0.9-42.7-3.5
		c-0.6-0.2-1.2-0.7-1.8-1C49.2,720.8,74,718.9,98.8,719.4z"/>
	<path id="XMLID_192_" class="st13" d="M267.8,720.6c-6.6-1-13.3,0.9-19.9-1.2c19.5-0.2,39,0.2,58.5-1.2c-6.3,3-13.1,2.1-19.7,2.3
		C280.4,720.6,274.1,720.6,267.8,720.6z"/>
	<path id="XMLID_191_" class="st7" d="M233.7,1.7c0-0.4,0-0.7,0-1.1c17.7,0.1,35.5,0.2,53.2,0.3c-0.4,0.3-0.7,0.6-1.1,0.9
		C276,3,266.1,2.3,256.2,2.3C248.7,2.3,241.2,3.2,233.7,1.7z"/>
	<path id="XMLID_190_" class="st9" d="M91.3,0.8c0,0.3,0,0.6,0,0.9c-4.9,1.5-9.9,0.6-14.9,0.6c-8,0-16.1,0.6-24.1-0.4
		c-0.4-0.3-0.8-0.6-1.2-1C64.5,0.9,77.9,0.8,91.3,0.8z"/>
	<path id="XMLID_189_" class="st14" d="M31.4,5.1c-0.5-0.5-1-0.9-1.4-1.4c3.5-1.8,7.2-2.2,11.1-2c1.5,0.2,2.8,0.7,3.4,2.2
		C40.1,3.6,35.8,4.2,31.4,5.1z"/>
	<path id="XMLID_187_" class="st15" d="M306.6,37.7c-87.9,0-175.8,0-263.7,0c-2,0-4-0.1-6-0.2c-3.1-1.5-6.4-0.7-9.6-0.9
		c-2.1-0.1-3.8-0.7-4.4-3.1C19.9,21.9,29.2,9,41,8.4c2.7-0.1,5.4,0.4,7.9-1.2c4.8-0.9,9.7-1,14.5-1c39.8,0.2,79.6-1,119.4-0.7
		c13.8,0.1,27.5-0.2,41.3,0.1c23.3,0.3,46.7,0.3,70,1c0.9,0,1.8,0,2.6,0.5c4.3,1.9,9.6,1.4,13.1,5.4c0.9-0.4,1.7-0.1,2.4,0.5
		c2.8,5.7,6.6,11.2,3.3,18c-0.3,0.6-0.1-0.2-0.3,0.4c-0.8,2.4,2.5,6.1-1.2,6.1C307.5,37.6,314.9,37.7,306.6,37.7z"/>
	<path id="XMLID_186_" d="M26.5,687.6c18.3,2,36.7,1.8,55.1,2c66,0.8,132.1-0.1,198.1,0.4c9.2,0.1,18.4-0.4,27.6-1.2
		c8.3,0.4,9.3,2.2,6.6,10c-1.5,4.3-4.1,7.9-6.1,11.9c2.1,2.4,5.7-1.4,7.3,2c-1.4,0.5-2.8,0.9-4.1,1.4c-16,1.5-32,0.4-48,0.4
		c-65.3,0-130.6,0-196,0c-9.7,0-19.3,1.5-29.1,0c-10.1-1.6-18.8-14.1-16.7-24.2C22.1,686.7,24.1,687,26.5,687.6z"/>
	<path id="XMLID_185_" class="st16" d="M4.3,45.3c0-2.9,0.1-5.8,0.1-8.7c0.4,0.4,0.7,0.8,1.1,1.2c2.2,1.4,2.4,3.2,1.1,5.3l0,0
		C5.4,45.2,6,47.4,6,49.5c0,120.7,0,241.4-0.1,362c-0.8,2.3-1.8,1.3-2.7,0.1c0-2.9,0-5.8,0-8.7c0.8-1.1,0.6-2.4,0.6-3.7
		c0-22.2,0-44.4,0-66.6c0-1.2,0.3-2.5-0.5-3.7c0-1.1,0-2.2,0-3.3c0.9-6.5,0.9-13,0-19.6c0-1.1,0-2.2,0-3.3c1-3.2,0.5-6.4,0.5-9.6
		c0.1-16,0-32.1,0-48.1c0-1.8,0.4-3.6-0.4-5.3c0-9.8,0-19.6,0-29.4c0.8-1.9,0.4-3.9,0.4-5.9c0-51.1,0-102.3,0-153.4
		C3.8,49.2,3.3,47.2,4.3,45.3z"/>
	<path id="XMLID_184_" class="st17" d="M296.7,7.2c-82.6-1.9-165.2-0.5-247.8,0c5.4-1.6,10.9-2,16.4-2c70.9-0.1,141.8-0.1,212.7,0
		C284.2,5.2,290.5,5.8,296.7,7.2z"/>
	<path id="XMLID_182_" class="st18" d="M317.5,684.6c0.3-0.4,0.7-0.8,1-1.1c4.8-2.4,6.3-1.6,5.9,3.5c-0.4,4.5-0.9,9-2.1,13.3
		c-0.3,1.9-2.2,3-2.7,4.9c-0.6,0.6-1.1,1.4-1.9,1.9c-0.9,0.6-2,1.4-3,0.7c-1.4-1-0.3-2.3,0.2-3.3c2.6-4.9,3.2-10.2,3.8-15.6
		C319,687.2,319,685.7,317.5,684.6z"/>
	<path id="XMLID_179_" class="st19" d="M328.3,673.7c1.3-3.7-0.2-8.1,1.1-11.8c0.9,1.8,1.3,2.8,1.3,5.9c-0.1,7.2,0.1,13.5-0.5,20.9
		c-2.4,0.1-2.4-1.7-2.5-3.3C327.8,681.6,327.3,677.6,328.3,673.7z"/>
	<path id="XMLID_173_" class="st20" d="M324.9,677.9c0.5-0.6,1-1.3,1.4-1.9c1.6-1.2,2.7-0.3,2.4,1.2c-1.1,5.7,1,11.5-0.4,17.2
		c-0.2,2.3-2.2,3.6-3.2,5.5c-2.1,0.3-2.4-1.1-2-2.5c0.6-2.2,0.2-4.5,0.5-6.7c0.1-0.5,0.3-1,0.5-1.5
		C325,685.3,324.1,681.5,324.9,677.9z"/>
	<path id="XMLID_172_" class="st21" d="M328.2,694.3c-0.3-4.7-0.6-9.4-0.9-14.1c-0.1-1.5,0.9-3.2-1-4.3c0.7-0.7,1.4-1.5,2-2.2
		c2.7,4.8-0.2,10.2,1.9,15.1C329.6,690.6,328.9,692.5,328.2,694.3z"/>
	<path id="XMLID_171_" class="st22" d="M325,690c0,3.3,0,6.5,0,9.8c-1.1,2.5-3.4,3.9-5.4,5.5c-0.5-1.4-0.3-2.5,1.1-3.3
		c1.2-2.9,1.8-6,2.2-9.2C323,691.4,322.8,689.7,325,690z"/>
	<path id="XMLID_169_" class="st23" d="M288.1,3.9c6.2-1.6,12.4-1.9,18.3,1.3C300.4,4.7,294.3,3.6,288.1,3.9z"/>
	<path id="XMLID_167_" class="st0" d="M3.2,411.7c0.7,0.4,1.4,0.7,2.1,1.1c1.2,2,0.6,4.3,0.6,6.4c0,81.6-0.1,163.2,0.2,244.8
		c0,9.8,2.1,19.6,5.4,28.9c0.9,1.8,1.7,3.7,2.9,5.4c1.4,1.9,2.7,4.1,5.3,4.5c0.5-4.9-2.3-9.2-1.8-14c0.3-2.4,0.6-4.5,3.9-3.1
		c1.6,0.7,3.2,1.4,4.8,2c-4.3,2.3-5,8.9-1.6,14.5c4.3,7.1,10,10.9,19,10.8c83.1-0.3,166.1-0.2,249.2-0.2c6,0,12.1-1.9,17.9,1.2
		c-4.9,2.3-10.1,2.7-15.3,3c-11.9,0.6-23.9,1.1-35.8,1.1c-64.8,0.1-129.6,0.2-194.4-0.2c-14.7-0.1-29.8,0.7-43.8-5.9
		C5.6,701.6,3.1,685.7,3.9,668.4c0.1-3.2-0.6-6.5-0.6-9.7c0-43.9,0-87.9,0-131.8c0.7-5.4,0.7-10.8,0-16.3c-0.1-24-0.1-47.9-0.2-71.9
		C3.2,429.7,3.2,420.7,3.2,411.7z"/>
	<path id="XMLID_166_" class="st23" d="M52.3,1.9c13-0.1,26-0.1,39-0.2c47.5,0,95,0,142.5,0c17.4,0.1,34.7,0.1,52.1,0.2
		c-2.1,1.3-4.5,1.1-6.9,1.1c-73.1,0-146.2,0-219.2,0C57.2,2.9,54.6,3.2,52.3,1.9z"/>
	<path id="XMLID_165_" class="st24" d="M3.3,510.6c1.5,5.4,1.5,10.8,0,16.3C3.3,521.4,3.3,516,3.3,510.6z"/>
	<path id="XMLID_164_" class="st4" d="M4.3,45.3c0,52.8,0,105.5,0,158.3c0,2.3,0.2,4.7-1,6.9c-0.1-1.5-0.2-2.9-0.3-4.4
		c0-34.7,0.1-69.4,0.1-104.2c0-16.4,0.1-32.8,0.1-49.3C3.2,50.2,2.9,47.6,4.3,45.3z"/>
	<path id="XMLID_163_" class="st24" d="M3.2,329c1.2,2,1.1,4.2,1.1,6.3c0,20.4,0,40.9,0,61.3c0,2.2,0.1,4.4-1.1,6.3
		C3.2,378.3,3.2,353.7,3.2,329z"/>
	<path id="XMLID_162_" class="st4" d="M3.3,239.9c0.9,1.6,1,3.4,1,5.3c0,17.5,0,35,0,52.5c0,1.8-0.1,3.6-1,5.2
		C3.3,281.9,3.3,260.9,3.3,239.9z"/>
	<path id="XMLID_161_" class="st4" d="M3.2,306.2c1.7,6.5,1.7,13,0,19.6C3.2,319.3,3.2,312.7,3.2,306.2z"/>
	<path id="XMLID_160_" class="st25" d="M2,154.1c0,16.2,0,32.5,0,48.7c-1.1-2-1-4.2-1-6.3c0-12,0-24.1,0-36.1
		C1.1,158.3,0.9,156.1,2,154.1z"/>
	<path id="XMLID_159_" class="st26" d="M10.6,695.6c-4.4-7.5-4.8-15.9-4.8-24.2c-0.1-83.9-0.2-167.7-0.2-251.6c0-2.3-0.2-4.7-0.2-7
		c0.1-34.9,0.2-69.9,0.2-104.8c0-85.6,0-171.2,0.1-256.9c0-2.7-0.7-5.4,0.8-8c0.1,8.7,0.2,17.4,0.2,26.1c0,196.9,0,393.8,0,590.7
		c0,6-0.2,12,4.2,17c2.4,5.1,1.3,10.6,2.1,16C13.1,694.3,12.8,695.8,10.6,695.6z"/>
	<path id="XMLID_158_" class="st27" d="M21.8,685.6c-2.2,1.1-2.4,3.1-2,5c1.2,6,1.1,12.5,6.4,17.7c-3.3,0.8-5-0.7-6.6-2.3
		c-1-1.5-2.6-2.4-3.2-4.2c-2.3-5.6-1.1-11.7-2.1-17.5c-0.3-1.8,0.4-3.4,2.8-2C18.3,683.9,20.7,683.7,21.8,685.6z"/>
	<path id="XMLID_157_" class="st0" d="M311.6,11c6.3,4.9,16,10.8,17.6,17.4c0.5,2.6,1.6,16.4,1.6,19.1c-6.8-8.7-10.4-9.8-24.2-9.9
		c2.5-0.9,5.7-0.9,7.7-0.4C315.5,28.8,311,18.2,311.6,11z"/>
	<path id="XMLID_156_" class="st10" d="M17,682.4c-1,4.4-0.9,8.8,0.1,13.2c0.5,2.1,1,4.1,0.3,6.3c-3.2-0.1-3.3-2.8-3.9-4.9
		c-0.9-3.5-0.8-7.2-1.5-10.7c0.6-2.2-1.6-5.3,2.3-6.3C15.2,680.8,16.1,681.6,17,682.4z"/>
	<path id="XMLID_155_" class="st28" d="M14.3,680c-1.5,2-1.2,4.4-1.3,6.7c1.1,4,0.1,8.2,1.4,12.1c0.2,0.7-0.7,1.1-1.5,1
		c-1.1-1.2-2.3-2.4-2.3-4.2c0.9-4.7-0.1-9.3-0.1-14c0-1.6-0.6-3.2,0.3-4.7C12.4,677.4,13.5,678.6,14.3,680z"/>
	<path id="XMLID_154_" class="st10" d="M325,690c-2.1,3.7-1.2,8.6-4.4,11.9c0.6-4.8,1.3-9.7,2-14.5c0.5-3.3-0.5-5-4.1-4
		c1.4-1.1,2.8-2.2,4.2-3.4c1.7-0.9,3-0.3,2.8,1.6C325.2,684.4,326,687.2,325,690L325,690z"/>
	<path id="XMLID_151_" class="st22" d="M325,690c-1.6-3.1,1.6-7.4-2.4-9.9c0.7-0.7,1.5-1.5,2.2-2.2C326.7,681.9,326.6,685.9,325,690
		z"/>
	<path id="XMLID_150_" class="st9" d="M168.5,24.6c-6,0-11.9,0.1-17.9,0c-2.3,0-5.4,0.3-5.4-3c0-3.1,3.1-3.3,5.4-3.3
		c12.9-0.2,25.7-0.1,38.6-0.2c2.1,0,3.5,0.5,3.5,3c0,2.8-2,3.3-4,3.4C181.9,24.6,175.2,24.5,168.5,24.6
		C168.5,24.6,168.5,24.6,168.5,24.6z"/>
	<path id="XMLID_149_" class="st0" d="M82.6,24c-0.3,3.6-0.9,7.4-5.9,8c-3.8,0.4-7.9-3.3-8.1-7.1c-0.2-4.2,3-7.7,7.2-7.8
		C80.2,17,82.5,19.2,82.6,24z"/>
	<path id="XMLID_148_" class="st29" d="M102.1,19.2c4.4-0.4,4.8,3.1,5,6.4c0.3,4.1-2.8,4.3-5.9,4.5c-4.2,0.2-6-2.2-5.9-5.9
		C95.4,20.2,98.2,19.2,102.1,19.2z"/>
	<path id="XMLID_147_" class="st30" d="M233.7,30.1c-2.9,1.4-5.6,1.8-7.4-1.5c-1.5-2.7-2.9-5.5,0.2-8.2c3.3-2.9,6.5-4.6,10.4-1.2
		C238,23.5,236.2,26.9,233.7,30.1z"/>
	<path id="XMLID_146_" class="st31" d="M54.7,20.3c1.9,0.1,3.8,0.5,3.3,3.1c-0.4,2-1,4-3.7,3.7c-2.3-0.2-4.3-1.1-4-4
		C50.5,20.5,52.6,20.4,54.7,20.3z"/>
	<path id="XMLID_145_" class="st25" d="M233.7,30.1c-1.6-0.2-3.3,0.3-4.8-1.4c1.2-1.9,4.1-1,5.5-3.3c1.2-2-0.2-4.9,2.5-6.2
		C239.8,25.4,239.3,27.1,233.7,30.1z"/>
	<path id="XMLID_143_" class="st3" d="M55.2,714.3c76.8,0,152.6,0,228.3,0C277.4,716.5,61.5,716.9,55.2,714.3z"/>
	<path id="XMLID_142_" class="st32" d="M13,699.8c0-4.4,0-8.7,0-13.1c1.7,3.1,0.8,6.7,1.9,10c0.6,1.9,0.6,3.9,2.5,5.2
		c0.7,1.4,1.5,2.8,2.2,4.2C16.6,704.8,14.5,702.6,13,699.8z"/>
</g>
</svg>
