<?xml version="1.0" encoding="utf-8"?>
<!-- Generator: Adobe Illustrator 19.0.0, SVG Export Plug-In . SVG Version: 6.00 Build 0)  -->
<svg version="1.1" id="Layer_1" xmlns="http://www.w3.org/2000/svg" xmlns:xlink="http://www.w3.org/1999/xlink" x="0px" y="0px"
	 viewBox="0 0 400 400" style="enable-background:new 0 0 400 400;" xml:space="preserve">
<g id="XMLID_1_">
	<path id="XMLID_16_" d="M159.1,291c-1.1,5.7-3.1,10.6-2.8,15.3c0.7,10.1-4.7,12.5-13.2,12.9c-18.7,0.9-33.9-4.3-45.9-20
		c-5.8-7.6-15-13.1-23.6-18c-3.7-2.1-9.7-0.4-14.6-0.4c0,2.5-0.1,3,0,3.1c15,12.1,22,30,33,45c11.4,15.6,28.9,20,47.7,19.1
		c4.8-0.2,9.6-0.6,15.5-1c0,9.8,0.8,18.9-0.2,27.7c-1.2,10.4-10.5,14.8-21.5,10.4c-64.4-25.8-106.4-72.2-121-140.1
		C-9.8,141.8,52.7,44.3,155.6,18.6C261.8-8,370.8,63.3,389.2,171.5c15.7,92.6-35.2,182.1-121.5,213.4c-14.3,5.2-22.2-0.3-22.4-15.6
		c-0.2-16.8,0.2-33.7-0.2-50.5c-0.2-9-1.5-18-2.3-27.2c12.3-4.4,25.8-8,38.3-13.9c54.3-25.8,70.1-94.6,33.4-142.5
		c-2.4-3.1-3.4-8.9-2.4-12.7c3.3-13.7,3.3-26.9-1.4-40.3c-2.9-8.3-8.1-12.8-16.5-9.3C280.5,78.6,266.9,84.8,254,92
		c-4.8,2.7-7.9,4.8-13.9,3.3c-27-6.8-54-6.1-81.2,0.1c-3.5,0.8-8.7-0.7-11.5-3c-12.7-10.6-26.9-17.4-43.2-20.1
		c-6.5-1.1-10.5,0.8-13.2,7.1c-5.8,13.9-7.3,28.2-1.8,41.9c3,7.3,0.8,11.3-3.2,16.5c-27,35.4-25.7,86.6,3.1,118.2
		c15.9,17.5,36.7,26.5,59.1,32.2C151.6,289.2,155,290,159.1,291z"/>
</g>
</svg>
