<?xml version="1.0" encoding="utf-8"?>
<!-- Generator: Adobe Illustrator 19.0.0, SVG Export Plug-In . SVG Version: 6.00 Build 0)  -->
<svg version="1.1" id="Layer_1" xmlns="http://www.w3.org/2000/svg" xmlns:xlink="http://www.w3.org/1999/xlink" x="0px" y="0px"
	 viewBox="0 0 400 400" style="enable-background:new 0 0 400 400;" xml:space="preserve">
<g id="XMLID_2_">
	<path id="XMLID_44_" d="M360.6,388.2c-107,0-214.1,0-321.1,0c-0.4-0.1-0.7-0.3-1.1-0.3c-12-2.2-19.8-9.2-23.4-20.9
		c-0.4-1.4-0.7-2.8-1-4.2c0-107,0-214.1,0-321.1c0.1-0.4,0.3-0.8,0.4-1.3c1.9-10.3,7.6-17.6,17.1-21.8c2.5-1.1,5.3-1.6,8-2.3
		c107,0,214.1,0,321.1,0c0.4,0.1,0.7,0.3,1.1,0.3c12.1,2.2,19.9,9.3,23.4,21.1c0.4,1.3,0.6,2.7,0.9,4c0,107,0,214.1,0,321.1
		c-0.1,0.4-0.3,0.8-0.4,1.3c-1.8,11.3-10.2,20.5-21.2,23.3C363.1,387.7,361.8,388,360.6,388.2z M207.8,217.6
		c-0.2-0.1-0.3-0.2-0.5-0.3c0-7.6,0-15.1,0-22.7c-14.5,0-28.7,0-43.1,0c0,0.7-0.1,1.4-0.1,2c0,55.9,0,111.7,0,167.6
		c0,1.7,0.5,2.1,2.2,2.1c15.2-0.1,30.4,0,45.5,0c0.6,0,1.2,0,2,0c0-1.1,0-1.9,0-2.7c0-30.9-0.1-61.9,0.1-92.8
		c0-6.9,0.7-13.9,1.9-20.7c1.9-11.5,8.9-18.9,20.1-22c5.5-1.5,11.2-2,16.9-1.4c12.6,1.2,19.2,6.6,22.9,18.6c2,6.5,2.9,13.1,2.9,19.8
		c0.1,32.9,0.1,65.8,0.1,98.7c0,0.8,0,1.6,0,2.4c16.8,0,33.4,0,50,0c0-0.7,0.1-1.2,0.1-1.8c0-35.7,0-71.5,0-107.2
		c0-9.7-1-19.3-3.4-28.8c-4-16.1-13.1-28-28.7-34.4c-18.5-7.5-37.2-8.2-56-1c-12.9,4.9-24,12.1-31.7,23.9
		C208.6,217.1,208.1,217.3,207.8,217.6z M128.4,366c0-54.6,0-109.1,0-163.6c-16.7,0-33.3,0-49.9,0c0,54.6,0,109,0,163.6
		C95.2,366,111.7,366,128.4,366z M78.6,130.6c0,14.3,0,28.4,0,42.6c16.7,0,33.2,0,49.8,0c0-14.2,0-28.4,0-42.6
		C111.8,130.6,95.3,130.6,78.6,130.6z"/>
</g>
</svg>
